<svg xmlns="http://www.w3.org/2000/svg" viewBox="0 0 256 256" role="img" aria-label="SEMS logo: a sun above score bars rising from red to green">
  <!-- SEMS logo: a sun (solar forecast) shining on score bars that rise
       from a small red bar (bad hour) to a tall green one (best hour).
       Original artwork for the SEMS project, MIT. -->
  <rect x="8" y="8" width="240" height="240" rx="48" fill="#1b2a41"/>
  <!-- sun (kept well inside the rounded frame, incl. the round line caps) -->
  <circle cx="94" cy="94" r="30" fill="#f6b93b"/>
  <g stroke="#f6b93b" stroke-width="10" stroke-linecap="round">
    <line x1="94" y1="50" x2="94" y2="36"/>
    <line x1="94" y1="138" x2="94" y2="152"/>
    <line x1="50" y1="94" x2="36" y2="94"/>
    <line x1="138" y1="94" x2="152" y2="94"/>
    <line x1="63" y1="63" x2="53" y2="53"/>
    <line x1="125" y1="125" x2="135" y2="135"/>
    <line x1="63" y1="125" x2="53" y2="135"/>
    <line x1="125" y1="63" x2="135" y2="53"/>
  </g>
  <!-- score bars: hours going from bad (small, red) to best (tall, green) -->
  <rect x="100" y="196" width="26" height="26" rx="6" fill="#e24b4a"/>
  <rect x="134" y="170" width="26" height="52" rx="6" fill="#ef8a2f"/>
  <rect x="168" y="136" width="26" height="86" rx="6" fill="#f6d03b"/>
  <rect x="202" y="94" width="26" height="128" rx="6" fill="#3fc380"/>
</svg>
